<?xml version="1.0" encoding="UTF-8" standalone="no"?>
<svg
   xmlns:dc="http://purl.org/dc/elements/1.1/"
   xmlns:cc="http://creativecommons.org/ns#"
   xmlns:rdf="http://www.w3.org/1999/02/22-rdf-syntax-ns#"
   xmlns:svg="http://www.w3.org/2000/svg"
   xmlns="http://www.w3.org/2000/svg"
   xmlns:sodipodi="http://sodipodi.sourceforge.net/DTD/sodipodi-0.dtd"
   xmlns:inkscape="http://www.inkscape.org/namespaces/inkscape"
   sodipodi:docname="all_icons.svg"
   inkscape:version="0.92.5 (2060ec1f9f, 2020-04-08)"
   id="svg8"
   version="1.1"
   viewBox="0 0 123.8969 25.002456"
   height="94.497475"
   width="468.27173">
  <defs
     id="defs2" />
  <sodipodi:namedview
     inkscape:window-maximized="1"
     inkscape:window-y="0"
     inkscape:window-x="1920"
     inkscape:window-height="1006"
     inkscape:window-width="1920"
     showgrid="false"
     inkscape:document-rotation="0"
     inkscape:current-layer="layer1"
     inkscape:document-units="px"
     inkscape:cy="6.8498593"
     inkscape:cx="341.92814"
     inkscape:zoom="3.959798"
     inkscape:pageshadow="2"
     inkscape:pageopacity="0"
     borderopacity="1"
     bordercolor="#808080"
     pagecolor="#ffffff"
     id="base"
     units="px"
     inkscape:pagecheckerboard="false"
     inkscape:snap-global="false"
     fit-margin-top="0"
     fit-margin-left="0"
     fit-margin-right="0"
     fit-margin-bottom="0" />
  <metadata
     id="metadata5">
    <rdf:RDF>
      <cc:Work
         rdf:about="">
        <dc:format>image/svg+xml</dc:format>
        <dc:type
           rdf:resource="http://purl.org/dc/dcmitype/StillImage" />
        <dc:title />
      </cc:Work>
    </rdf:RDF>
  </metadata>
  <g
     id="layer1"
     inkscape:groupmode="layer"
     inkscape:label="Layer 1"
     transform="translate(-1.5119042,-44.412201)">
    <g
       id="g1406"
       inkscape:export-xdpi="96"
       inkscape:export-ydpi="96">
      <g
         transform="translate(-12.284226)"
         id="g818">
        <rect
           style="fill:#000000;fill-opacity:1;stroke-width:0.66145831;stroke-linecap:round;stroke-linejoin:round"
           id="rect812"
           width="11.90625"
           height="11.90625"
           x="13.79613"
           y="44.412201"
           ry="1.1339285" />
        <rect
           ry="0.80994898"
           y="46.113094"
           x="15.497023"
           height="8.5044641"
           width="8.5044641"
           id="rect814"
           style="fill:#ffffff;fill-opacity:1;stroke-width:0.66145831;stroke-linecap:round;stroke-linejoin:round" />
      </g>
      <g
         transform="translate(0.46590843,-0.07874033)"
         id="g871">
        <path
           style="fill:none;fill-opacity:1;stroke:#000000;stroke-width:1.32291663;stroke-linecap:round;stroke-linejoin:round;stroke-miterlimit:4;stroke-dasharray:none"
           d="m 6.4144687,48.481477 -2.0379301,2.037929 2.088043,1.887591"
           id="path865"
           inkscape:connector-curvature="0"
           sodipodi:nodetypes="ccc" />
        <path
           style="fill:none;fill-opacity:1;stroke:#000000;stroke-width:1.32291663;stroke-linecap:round;stroke-linejoin:round;stroke-miterlimit:4;stroke-dasharray:none"
           d="M 4.3765385,50.519406 H 9.621703"
           id="path867"
           inkscape:connector-curvature="0" />
      </g>
    </g>
    <g
       id="g1486"
       transform="translate(-5.9295654e-8,-0.79441833)"
       inkscape:export-xdpi="96"
       inkscape:export-ydpi="96">
      <g
         id="g863">
        <rect
           ry="1.1339285"
           y="58.302826"
           x="1.5119042"
           height="11.90625"
           width="11.90625"
           id="rect851"
           style="fill:#e1e164;fill-opacity:1;stroke-width:0.66145831;stroke-linecap:round;stroke-linejoin:round" />
        <rect
           style="fill:#ffffff;fill-opacity:1;stroke-width:0.66145831;stroke-linecap:round;stroke-linejoin:round"
           id="rect853"
           width="8.5044641"
           height="8.5044641"
           x="3.2127967"
           y="60.003719"
           ry="0.80994898" />
      </g>
      <g
         style="stroke:#e1e164;stroke-opacity:1"
         id="g877"
         transform="translate(0.46590849,13.811885)">
        <path
           sodipodi:nodetypes="ccc"
           inkscape:connector-curvature="0"
           id="path873"
           d="m 6.4144687,48.481477 -2.0379301,2.037929 2.088043,1.887591"
           style="fill:none;fill-opacity:1;stroke:#e1e164;stroke-width:1.32291663;stroke-linecap:round;stroke-linejoin:round;stroke-miterlimit:4;stroke-dasharray:none;stroke-opacity:1" />
        <path
           inkscape:connector-curvature="0"
           id="path875"
           d="M 4.3765385,50.519406 H 9.621703"
           style="fill:none;fill-opacity:1;stroke:#e1e164;stroke-width:1.32291663;stroke-linecap:round;stroke-linejoin:round;stroke-miterlimit:4;stroke-dasharray:none;stroke-opacity:1" />
      </g>
    </g>
    <g
       id="g978"
       transform="translate(0.10820444)"
       inkscape:export-xdpi="96"
       inkscape:export-ydpi="96">
      <g
         id="g824"
         transform="translate(1.6063989)">
        <rect
           ry="1.1339285"
           y="44.412201"
           x="13.79613"
           height="11.90625"
           width="11.90625"
           id="rect820"
           style="fill:#000000;fill-opacity:1;stroke-width:0.66145831;stroke-linecap:round;stroke-linejoin:round" />
        <rect
           style="fill:#ffffff;fill-opacity:1;stroke-width:0.66145831;stroke-linecap:round;stroke-linejoin:round"
           id="rect822"
           width="8.5044641"
           height="8.5044641"
           x="15.497023"
           y="46.113094"
           ry="0.80994898" />
      </g>
      <g
         transform="translate(0.01785658,0.07138593)"
         id="g888">
        <path
           style="fill:#000000;fill-opacity:1;stroke:none;stroke-width:1.32291663;stroke-linecap:round;stroke-linejoin:round;stroke-miterlimit:4;stroke-dasharray:none;stroke-opacity:1"
           d="m 18.541137,49.766373 c -0.292176,0.292176 -0.292176,0.762957 0,1.055133 l 1.977595,1.977595 c 0.146088,0.146088 0.336914,0.218958 0.527566,0.218958 v -5.448238 c -0.190652,0 -0.381478,0.07287 -0.527566,0.218957 z"
           id="rect879"
           inkscape:connector-curvature="0" />
        <path
           inkscape:connector-curvature="0"
           id="path884"
           d="m 21.848429,49.766373 c -0.292176,0.292176 -0.292176,0.762957 0,1.055133 l 1.977595,1.977595 c 0.146088,0.146088 0.336914,0.218958 0.527566,0.218958 v -5.448238 c -0.190652,0 -0.381478,0.07287 -0.527566,0.218957 z"
           style="fill:#000000;fill-opacity:1;stroke:none;stroke-width:1.32291663;stroke-linecap:round;stroke-linejoin:round;stroke-miterlimit:4;stroke-dasharray:none;stroke-opacity:1" />
      </g>
    </g>
    <g
       id="g970"
       transform="translate(0.45264483)"
       inkscape:export-xdpi="96"
       inkscape:export-ydpi="96">
      <g
         transform="translate(15.260789)"
         id="g894">
        <rect
           style="fill:#000000;fill-opacity:1;stroke-width:0.66145831;stroke-linecap:round;stroke-linejoin:round"
           id="rect890"
           width="11.90625"
           height="11.90625"
           x="13.79613"
           y="44.412201"
           ry="1.1339285" />
        <rect
           ry="0.80994898"
           y="46.113094"
           x="15.497023"
           height="8.5044641"
           width="8.5044641"
           id="rect892"
           style="fill:#ffffff;fill-opacity:1;stroke-width:0.66145831;stroke-linecap:round;stroke-linejoin:round" />
      </g>
      <g
         transform="matrix(-1,0,0,1,56.347842,0.07138593)"
         id="g900">
        <path
           inkscape:connector-curvature="0"
           id="path896"
           d="m 18.541137,49.766373 c -0.292176,0.292176 -0.292176,0.762957 0,1.055133 l 1.977595,1.977595 c 0.146088,0.146088 0.336914,0.218958 0.527566,0.218958 v -5.448238 c -0.190652,0 -0.381478,0.07287 -0.527566,0.218957 z"
           style="fill:#000000;fill-opacity:1;stroke:none;stroke-width:1.32291663;stroke-linecap:round;stroke-linejoin:round;stroke-miterlimit:4;stroke-dasharray:none;stroke-opacity:1" />
        <path
           style="fill:#000000;fill-opacity:1;stroke:none;stroke-width:1.32291663;stroke-linecap:round;stroke-linejoin:round;stroke-miterlimit:4;stroke-dasharray:none;stroke-opacity:1"
           d="m 21.848429,49.766373 c -0.292176,0.292176 -0.292176,0.762957 0,1.055133 l 1.977595,1.977595 c 0.146088,0.146088 0.336914,0.218958 0.527566,0.218958 v -5.448238 c -0.190652,0 -0.381478,0.07287 -0.527566,0.218957 z"
           id="path898"
           inkscape:connector-curvature="0" />
      </g>
    </g>
    <g
       id="g935"
       transform="translate(0.10820475,-0.55818176)"
       inkscape:export-xdpi="96"
       inkscape:export-ydpi="96">
      <rect
         ry="1.1339285"
         y="58.066589"
         x="15.402529"
         height="11.90625"
         width="11.90625"
         id="rect902"
         style="fill:#e1e164;fill-opacity:1;stroke-width:0.66145831;stroke-linecap:round;stroke-linejoin:round" />
      <rect
         style="fill:#ffffff;fill-opacity:1;stroke-width:0.66145831;stroke-linecap:round;stroke-linejoin:round"
         id="rect904"
         width="8.5044641"
         height="8.5044641"
         x="17.103422"
         y="59.767483"
         ry="0.80994898" />
      <g
         style="fill:#e1e164;fill-opacity:1"
         id="g912"
         transform="translate(0.01785658,13.725776)">
        <path
           inkscape:connector-curvature="0"
           id="path908"
           d="m 18.541137,49.766373 c -0.292176,0.292176 -0.292176,0.762957 0,1.055133 l 1.977595,1.977595 c 0.146088,0.146088 0.336914,0.218958 0.527566,0.218958 v -5.448238 c -0.190652,0 -0.381478,0.07287 -0.527566,0.218957 z"
           style="fill:#e1e164;fill-opacity:1;stroke:none;stroke-width:1.32291663;stroke-linecap:round;stroke-linejoin:round;stroke-miterlimit:4;stroke-dasharray:none;stroke-opacity:1" />
        <path
           style="fill:#e1e164;fill-opacity:1;stroke:none;stroke-width:1.32291663;stroke-linecap:round;stroke-linejoin:round;stroke-miterlimit:4;stroke-dasharray:none;stroke-opacity:1"
           d="m 21.848429,49.766373 c -0.292176,0.292176 -0.292176,0.762957 0,1.055133 l 1.977595,1.977595 c 0.146088,0.146088 0.336914,0.218958 0.527566,0.218958 v -5.448238 c -0.190652,0 -0.381478,0.07287 -0.527566,0.218957 z"
           id="path910"
           inkscape:connector-curvature="0" />
      </g>
    </g>
    <g
       id="g942"
       transform="translate(0.45264492,-0.55818176)"
       inkscape:export-xdpi="96"
       inkscape:export-ydpi="96">
      <rect
         style="fill:#e1e164;fill-opacity:1;stroke-width:0.66145831;stroke-linecap:round;stroke-linejoin:round"
         id="rect914"
         width="11.90625"
         height="11.90625"
         x="29.056919"
         y="58.066589"
         ry="1.1339285" />
      <rect
         ry="0.80994898"
         y="59.767483"
         x="30.757812"
         height="8.5044641"
         width="8.5044641"
         id="rect916"
         style="fill:#ffffff;fill-opacity:1;stroke-width:0.66145831;stroke-linecap:round;stroke-linejoin:round" />
      <g
         style="fill:#e1e164;fill-opacity:1"
         id="g924"
         transform="matrix(-1,0,0,1,56.347842,13.725776)">
        <path
           style="fill:#e1e164;fill-opacity:1;stroke:none;stroke-width:1.32291663;stroke-linecap:round;stroke-linejoin:round;stroke-miterlimit:4;stroke-dasharray:none;stroke-opacity:1"
           d="m 18.541137,49.766373 c -0.292176,0.292176 -0.292176,0.762957 0,1.055133 l 1.977595,1.977595 c 0.146088,0.146088 0.336914,0.218958 0.527566,0.218958 v -5.448238 c -0.190652,0 -0.381478,0.07287 -0.527566,0.218957 z"
           id="path920"
           inkscape:connector-curvature="0" />
        <path
           inkscape:connector-curvature="0"
           id="path922"
           d="m 21.848429,49.766373 c -0.292176,0.292176 -0.292176,0.762957 0,1.055133 l 1.977595,1.977595 c 0.146088,0.146088 0.336914,0.218958 0.527566,0.218958 v -5.448238 c -0.190652,0 -0.381478,0.07287 -0.527566,0.218957 z"
           style="fill:#e1e164;fill-opacity:1;stroke:none;stroke-width:1.32291663;stroke-linecap:round;stroke-linejoin:round;stroke-miterlimit:4;stroke-dasharray:none;stroke-opacity:1" />
      </g>
    </g>
    <g
       id="g1692"
       inkscape:export-xdpi="96"
       inkscape:export-ydpi="96">
      <g
         transform="translate(57.709929)"
         id="g984">
        <rect
           style="fill:#000000;fill-opacity:1;stroke-width:0.66145831;stroke-linecap:round;stroke-linejoin:round"
           id="rect980"
           width="11.90625"
           height="11.90625"
           x="13.79613"
           y="44.412201"
           ry="1.1339285" />
        <rect
           ry="0.80994898"
           y="46.113094"
           x="15.497023"
           height="8.5044641"
           width="8.5044641"
           id="rect982"
           style="fill:#ffffff;fill-opacity:1;stroke-width:0.66145831;stroke-linecap:round;stroke-linejoin:round" />
      </g>
      <g
         style="stroke-width:0.99663727;stroke:#000000;stroke-miterlimit:4;stroke-dasharray:none;stroke-linejoin:round"
         transform="matrix(0.39821409,0,0,0.39821409,29.608999,-32.557816)"
         id="g1047">
        <g
           style="font-style:normal;font-variant:normal;font-weight:normal;font-stretch:normal;letter-spacing:normal;word-spacing:normal;text-anchor:start;fill:none;fill-opacity:1;fill-rule:evenodd;stroke:#000000;stroke-width:2.44145609;stroke-linecap:butt;stroke-linejoin:round;stroke-miterlimit:4;stroke-dasharray:none;stroke-dashoffset:0;stroke-opacity:1"
           id="content"
           transform="matrix(0.40821429,0,0,-0.40821429,-71.4375,381)"
           xml:space="preserve"
           stroke-miterlimit="10.433"
           font-style="normal"
           font-variant="normal"
           font-weight="normal"
           font-stretch="normal"
           font-size-adjust="none"
           letter-spacing="normal"
           word-spacing="normal"><polygon
             style="fill:#000000;stroke-width:2.44145609;stroke:#000000;stroke-miterlimit:4;stroke-dasharray:none;stroke-linejoin:round"
             points="476.95,433.11 477.84,434 471.21,440.78 464.54,434 465.43,433.11 471.21,438.18 "
             id="polygon1042" /><path
             style="fill:#000000;stroke-width:2.44145609;stroke:#000000;stroke-miterlimit:4;stroke-dasharray:none;stroke-linejoin:round"
             inkscape:connector-curvature="0"
             d="m 472.16,421.25 0.03,0.13 0.03,0.15 0.04,0.16 0.05,0.18 0.05,0.19 0.06,0.21 0.07,0.22 0.07,0.22 0.08,0.23 0.09,0.24 0.09,0.25 0.11,0.24 0.11,0.25 0.12,0.25 0.13,0.25 0.13,0.25 0.15,0.24 0.16,0.24 0.16,0.23 0.18,0.22 0.19,0.22 0.2,0.2 0.21,0.19 0.22,0.18 0.23,0.16 0.24,0.14 0.13,0.07 0.13,0.06 0.13,0.05 0.14,0.05 0.14,0.05 0.14,0.04 0.15,0.03 0.15,0.03 0.15,0.02 0.15,0.02 0.16,0.01 h 0.16 c 0.25,0 1.44,0 2.49,-0.64 -1.39,-0.25 -2.39,-1.5 -2.39,-2.69 0,-0.79 0.54,-1.75 1.89,-1.75 1.09,0 2.69,0.89 2.69,2.89 0,2.6 -2.94,3.28 -4.63,3.28 -2.89,0 -4.64,-2.64 -5.23,-3.78 -1.25,3.28 -3.94,3.78 -5.38,3.78 -5.19,0 -8.03,-6.42 -8.03,-7.67 0,-0.5 0.5,-0.5 0.61,-0.5 0.39,0 0.55,0.11 0.64,0.55 1.69,5.28 4.98,6.53 6.67,6.53 0.96,0 2.69,-0.44 2.69,-3.33 0,-1.54 -0.84,-4.89 -2.69,-11.86 -0.8,-3.09 -2.53,-5.18 -4.73,-5.18 -0.3,0 -1.44,0 -2.49,0.65 1.25,0.24 2.35,1.28 2.35,2.69 0,1.34 -1.1,1.73 -1.85,1.73 -1.5,0 -2.75,-1.29 -2.75,-2.89 0,-2.28 2.5,-3.28 4.69,-3.28 3.3,0 5.08,3.49 5.24,3.78 0.59,-1.84 2.39,-3.78 5.37,-3.78 5.14,0 7.98,6.42 7.98,7.67 0,0.5 -0.45,0.5 -0.61,0.5 -0.43,0 -0.54,-0.2 -0.64,-0.54 -1.64,-5.33 -5.03,-6.53 -6.62,-6.53 -1.95,0 -2.75,1.59 -2.75,3.29 0,1.1 0.3,2.19 0.86,4.38 z"
             id="path1044" /></g>      </g>
    </g>
    <g
       id="g1730"
       inkscape:export-xdpi="96"
       inkscape:export-ydpi="96">
      <g
         id="g990"
         transform="translate(71.70876)">
        <rect
           ry="1.1339285"
           y="44.412201"
           x="13.79613"
           height="11.90625"
           width="11.90625"
           id="rect986"
           style="fill:#000000;fill-opacity:1;stroke-width:0.66145831;stroke-linecap:round;stroke-linejoin:round" />
        <rect
           style="fill:#ffffff;fill-opacity:1;stroke-width:0.66145831;stroke-linecap:round;stroke-linejoin:round"
           id="rect988"
           width="8.5044641"
           height="8.5044641"
           x="15.497023"
           y="46.113094"
           ry="0.80994898" />
      </g>
      <g
         style="stroke-width:1.0724451;stroke:#000000;stroke-miterlimit:4;stroke-dasharray:none;stroke-linejoin:round"
         transform="matrix(0.37006556,0,0,0.37006557,47.358814,-27.385097)"
         id="g1115">
        <g
           style="font-style:normal;font-variant:normal;font-weight:normal;font-stretch:normal;letter-spacing:normal;word-spacing:normal;text-anchor:start;fill:none;fill-opacity:1;fill-rule:evenodd;stroke:#000000;stroke-width:2.62716207;stroke-linecap:butt;stroke-linejoin:round;stroke-miterlimit:4;stroke-dasharray:none;stroke-dashoffset:0;stroke-opacity:1"
           id="g1113"
           transform="matrix(0.40821429,0,0,-0.40821429,-71.4375,381)"
           xml:space="preserve"
           stroke-miterlimit="10.433"
           font-style="normal"
           font-variant="normal"
           font-weight="normal"
           font-stretch="normal"
           font-size-adjust="none"
           letter-spacing="normal"
           word-spacing="normal"><polygon
             style="fill:#000000;stroke-width:2.62716207;stroke:#000000;stroke-miterlimit:4;stroke-dasharray:none;stroke-linejoin:round"
             points="478.03,433.11 478.92,434 472.29,440.78 465.62,434 466.51,433.11 472.29,438.18 "
             id="polygon1109" /><path
             style="fill:#000000;stroke-width:2.62716207;stroke:#000000;stroke-miterlimit:4;stroke-dasharray:none;stroke-linejoin:round"
             inkscape:connector-curvature="0"
             d="m 457.75,400.12 -0.04,-0.15 -0.03,-0.15 -0.03,-0.14 -0.04,-0.13 -0.03,-0.13 -0.03,-0.11 -0.04,-0.12 -0.03,-0.1 -0.04,-0.1 -0.04,-0.09 -0.05,-0.09 -0.04,-0.08 -0.05,-0.07 -0.05,-0.07 -0.06,-0.07 -0.06,-0.06 -0.07,-0.05 -0.08,-0.05 -0.08,-0.04 -0.08,-0.04 -0.1,-0.04 -0.1,-0.03 -0.11,-0.03 -0.11,-0.02 -0.13,-0.02 -0.07,-0.01 -0.06,-0.01 -0.08,-0.01 -0.07,-0.01 h -0.08 l -0.08,-0.01 h -0.08 l -0.08,-0.01 h -0.09 -0.09 -0.09 -0.1 l -0.1,-0.01 h -0.1 c -0.59,0 -1.14,0 -1.14,-0.93 0,-0.41 0.25,-0.61 0.64,-0.61 1.36,0 2.8,0.15 4.19,0.15 1.64,0 3.34,-0.15 4.94,-0.15 0.25,0 0.89,0 0.89,1 0,0.54 -0.5,0.54 -1.19,0.54 -2.5,0 -2.5,0.36 -2.5,0.8 0,0.61 2.09,8.72 2.45,9.97 0.64,-1.44 2.04,-3.19 4.58,-3.19 l -0.04,1.1 c -3.3,0 -3.94,4.14 -3.94,4.43 0,0.1 0,0.21 0.14,0.8 l 2.45,9.77 c 0.35,1.34 1.69,2.73 2.58,3.48 1.75,1.55 3.2,1.89 4.05,1.89 1.98,0 3.18,-1.73 3.18,-4.69 0,-2.93 -1.64,-8.65 -2.54,-10.56 -1.69,-3.48 -4.08,-5.12 -5.92,-5.12 l 0.04,-1.1 c 5.78,0 12,7.27 12,14.6 0,4.68 -2.83,7.96 -6.62,7.96 -2.49,0 -4.88,-1.78 -6.52,-3.73 -0.5,2.69 -2.64,3.73 -4.48,3.73 -2.3,0 -3.25,-1.93 -3.69,-2.82 -0.91,-1.71 -1.55,-4.69 -1.55,-4.85 0,-0.5 0.5,-0.5 0.6,-0.5 0.5,0 0.54,0.07 0.84,1.16 0.86,3.53 1.84,5.92 3.64,5.92 0.84,0 1.55,-0.39 1.55,-2.28 0,-1.16 -0.16,-1.7 -0.35,-2.55 z"
             id="path1111" /></g>      </g>
    </g>
    <g
       id="g1768"
       inkscape:export-xdpi="96"
       inkscape:export-ydpi="96">
      <g
         transform="translate(85.70759)"
         id="g1243">
        <rect
           style="fill:#000000;fill-opacity:1;stroke-width:0.66145831;stroke-linecap:round;stroke-linejoin:round"
           id="rect1239"
           width="11.90625"
           height="11.90625"
           x="13.79613"
           y="44.412201"
           ry="1.1339285" />
        <rect
           ry="0.80994898"
           y="46.113094"
           x="15.497023"
           height="8.5044641"
           width="8.5044641"
           id="rect1241"
           style="fill:#ffffff;fill-opacity:1;stroke-width:0.66145831;stroke-linecap:round;stroke-linejoin:round" />
      </g>
      <g
         style="stroke-width:1.01127378;stroke:#000000;stroke-miterlimit:4;stroke-dasharray:none;stroke-linejoin:round"
         transform="matrix(0.3924506,0,0,0.3924506,57.273907,-33.015752)"
         id="g1231">
        <g
           style="font-style:normal;font-variant:normal;font-weight:normal;font-stretch:normal;letter-spacing:normal;word-spacing:normal;text-anchor:start;fill:none;fill-opacity:1;fill-rule:evenodd;stroke:#000000;stroke-width:2.47731107;stroke-linecap:butt;stroke-linejoin:round;stroke-miterlimit:4;stroke-dasharray:none;stroke-dashoffset:0;stroke-opacity:1"
           id="g1229"
           transform="matrix(0.40821429,0,0,-0.40821429,-71.4375,381)"
           xml:space="preserve"
           stroke-miterlimit="10.433"
           font-style="normal"
           font-variant="normal"
           font-weight="normal"
           font-stretch="normal"
           font-size-adjust="none"
           letter-spacing="normal"
           word-spacing="normal"><path
             style="fill:#000000;stroke-width:2.47731107;stroke:#000000;stroke-miterlimit:4;stroke-dasharray:none;stroke-linejoin:round"
             inkscape:connector-curvature="0"
             d="m 470.36,417.46 0.15,0.01 h 0.16 0.15 0.07 l 0.08,0.01 h 0.07 l 0.07,0.01 0.07,0.01 0.07,0.01 0.07,0.01 0.07,0.02 0.06,0.01 0.06,0.02 0.06,0.02 0.06,0.03 0.06,0.02 0.05,0.03 0.05,0.03 0.04,0.04 0.04,0.04 0.04,0.04 0.04,0.05 0.01,0.02 0.02,0.03 0.01,0.02 0.01,0.03 0.02,0.03 0.01,0.03 v 0.03 l 0.01,0.03 0.01,0.04 0.01,0.03 v 0.04 0.03 l 0.01,0.04 v 0.04 c 0,0.69 -0.61,0.69 -1.46,0.69 h -8.06 c 1.19,4.23 3.99,7.12 8.52,7.12 h 1.54 c 0.85,0 1.64,0 1.64,0.86 0,0.69 -0.65,0.69 -1.5,0.69 h -1.73 c -6.48,0 -13.16,-4.99 -13.16,-12.6 0,-5.48 3.74,-9.42 9.02,-9.42 3.23,0 6.48,1.99 6.48,2.55 0,0.14 -0.06,0.69 -0.5,0.69 -0.11,0 -0.2,0 -0.65,-0.3 -1.55,-1 -3.39,-1.84 -5.24,-1.84 -2.89,0 -5.37,2.09 -5.37,6.48 0,1.73 0.4,3.63 0.54,4.23 z"
             id="path1225" /><path
             style="fill:#000000;stroke-width:2.47731107;stroke:#000000;stroke-miterlimit:4;stroke-dasharray:none;stroke-linejoin:round"
             inkscape:connector-curvature="0"
             d="m 493.66,409.87 v 0.71 l -0.02,0.68 -0.03,0.66 -0.04,0.64 -0.06,0.62 -0.07,0.6 -0.09,0.57 -0.11,0.56 -0.13,0.55 -0.15,0.53 -0.17,0.51 -0.19,0.5 -0.21,0.49 -0.24,0.48 -0.26,0.47 -0.14,0.23 -0.15,0.23 c -1.08,1.61 -3.23,3 -6.03,3 v -0.98 c 1.89,0 3.7,-1.14 4.33,-3.17 0.56,-1.88 0.59,-4.39 0.59,-7.43 0,-2.57 0,-5.15 -0.45,-7.34 -0.7,-3.17 -3.06,-3.94 -4.47,-3.94 v 0 c -1.59,0 -3.72,0.94 -4.42,3.8 -0.49,2.05 -0.49,4.91 -0.49,7.48 0,2.55 0,5.21 0.52,7.11 0.73,2.75 2.97,3.49 4.39,3.49 v 0.98 c -8.08,0 -8.08,-9.51 -8.08,-12.03 0,-2.5 0,-11.81 8.08,-11.81 8.09,0 8.09,9.31 8.09,11.81 z"
             id="path1227" /></g>      </g>
    </g>
    <g
       id="g1818"
       inkscape:export-xdpi="96"
       inkscape:export-ydpi="96">
      <g
         id="g1380"
         transform="translate(99.706421)">
        <rect
           ry="1.1339285"
           y="44.412201"
           x="13.79613"
           height="11.90625"
           width="11.90625"
           id="rect1376"
           style="fill:#000000;fill-opacity:1;stroke-width:0.66145831;stroke-linecap:round;stroke-linejoin:round" />
        <rect
           style="fill:#ffffff;fill-opacity:1;stroke-width:0.66145831;stroke-linecap:round;stroke-linejoin:round"
           id="rect1378"
           width="8.5044641"
           height="8.5044641"
           x="15.497023"
           y="46.113094"
           ry="0.80994898" />
      </g>
      <g
         style="stroke-width:2.5340088;stroke:#000000;stroke-miterlimit:4;stroke-dasharray:none;stroke-linejoin:round"
         transform="matrix(0.15661943,0,0,0.15661942,97.527174,17.295424)"
         id="g1366">
        <g
           style="font-style:normal;font-variant:normal;font-weight:normal;font-stretch:normal;letter-spacing:normal;word-spacing:normal;text-anchor:start;fill:none;fill-opacity:1;fill-rule:evenodd;stroke:#000000;stroke-width:6.20754556;stroke-linecap:butt;stroke-linejoin:round;stroke-miterlimit:4;stroke-dasharray:none;stroke-dashoffset:0;stroke-opacity:1"
           id="g1364"
           transform="matrix(0.40821429,0,0,-0.40821429,-71.4375,381)"
           xml:space="preserve"
           stroke-miterlimit="10.433"
           font-style="normal"
           font-variant="normal"
           font-weight="normal"
           font-stretch="normal"
           font-size-adjust="none"
           letter-spacing="normal"
           word-spacing="normal"><path
             style="fill:#000000;stroke-width:6.20754556;stroke:#000000;stroke-miterlimit:4;stroke-dasharray:none;stroke-linejoin:round"
             inkscape:connector-curvature="0"
             d="m 518.6,381.21 6.03,15.94 h -1.25 c -1.95,-5.17 -7.23,-8.56 -12.95,-10.06 -1.05,-0.25 -5.94,-1.55 -15.5,-1.55 h -30.05 l 25.36,29.75 c 0.36,0.39 0.45,0.55 0.45,0.8 0,0.09 0,0.25 -0.34,0.75 l -23.22,31.73 h 27.3 c 6.68,0 11.21,-0.7 11.65,-0.8 2.71,-0.4 7.03,-1.25 10.97,-3.73 1.25,-0.8 4.63,-3.05 6.33,-7.08 h 1.25 l -6.03,14 h -58.89 c -1.14,0 -1.21,-0.05 -1.35,-0.34 -0.04,-0.16 -0.04,-1.1 -0.04,-1.66 l 26.34,-36.06 -25.8,-30.25 c -0.5,-0.6 -0.5,-0.85 -0.5,-0.89 0,-0.55 0.44,-0.55 1.35,-0.55 z"
             id="path1356" /><path
             style="fill:#000000;stroke-width:6.20754556;stroke:#000000;stroke-miterlimit:4;stroke-dasharray:none;stroke-linejoin:round"
             inkscape:connector-curvature="0"
             d="m 557.57,437.05 v 0.01 0.01 0 0.01 0.01 0.01 0.01 0 l 0.01,0.02 v 0.03 l 0.01,0.02 v 0.02 l 0.01,0.03 v 0.03 l 0.01,0.02 0.01,0.03 v 0.03 l 0.01,0.03 0.01,0.06 0.02,0.06 0.01,0.03 v 0.02 l 0.01,0.03 0.01,0.03 v 0.02 l 0.01,0.02 v 0.03 l 0.01,0.02 v 0 0.01 0.01 l 0.01,0.01 v 0.01 0 0.01 0 0.01 0 0.01 0 c 0,0.04 0,0.5 -0.59,0.5 -0.5,0 -0.55,-0.16 -0.75,-1 l -2.89,-11.5 c -7.92,-0.25 -15.25,-6.88 -15.25,-13.66 0,-4.73 3.48,-8.67 9.56,-9.01 l 0.25,1.09 c -2.98,0.14 -6.58,1.89 -6.58,6.87 0,5.99 4.3,12.96 11.72,13.6 l -5.14,-20.47 -0.25,-1.09 c -0.39,-1.55 -0.73,-3.14 -1.14,-4.69 -0.59,-2.35 -1.09,-4.24 -1.09,-4.39 0,-0.49 0.34,-0.55 0.59,-0.55 0.25,0 0.36,0.06 0.5,0.2 0.09,0.1 0.41,1.3 0.55,2 l 1.89,7.43 0.25,1.09 5.14,20.47 c 3.78,-0.19 6.62,-2.49 6.62,-6.88 0,-5.87 -4.28,-13 -11.76,-13.59 l -0.25,-1.09 c 8.03,0.25 15.25,6.96 15.25,13.64 0,3.93 -2.64,8.53 -9.57,9.03 z"
             id="path1358" /><path
             style="fill:#000000;stroke-width:6.20754556;stroke:#000000;stroke-miterlimit:4;stroke-dasharray:none;stroke-linejoin:round"
             inkscape:connector-curvature="0"
             d="m 576.74,418.02 v 0.05 l -0.01,0.05 v 0.06 l -0.01,0.05 -0.01,0.06 -0.02,0.06 -0.01,0.05 -0.02,0.06 -0.03,0.05 -0.02,0.06 -0.03,0.06 -0.03,0.05 -0.03,0.05 -0.04,0.06 -0.03,0.05 -0.05,0.05 -0.04,0.05 -0.05,0.04 -0.05,0.05 -0.05,0.04 -0.06,0.04 -0.06,0.04 -0.06,0.04 -0.06,0.03 -0.07,0.03 -0.07,0.02 -0.08,0.02 -0.08,0.02 -0.08,0.02 -0.08,0.01 -0.09,0.01 h -0.09 c -0.93,0 -1.95,-0.91 -1.95,-1.92 0,-0.6 0.45,-1.33 1.4,-1.33 1,0 1.96,0.98 1.96,1.92 z"
             id="path1360" /><path
             style="fill:#000000;stroke-width:6.20754556;stroke:#000000;stroke-miterlimit:4;stroke-dasharray:none;stroke-linejoin:round"
             inkscape:connector-curvature="0"
             d="m 569.63,400.32 -0.05,-0.17 -0.06,-0.17 -0.03,-0.09 -0.02,-0.08 -0.03,-0.09 -0.02,-0.09 -0.02,-0.08 -0.02,-0.1 -0.02,-0.09 -0.01,-0.1 -0.02,-0.1 v -0.05 l -0.01,-0.05 v -0.05 -0.05 -0.06 -0.05 c 0,-1.64 1.39,-2.96 3.29,-2.96 3.49,0 5.04,4.8 5.04,5.33 0,0.46 -0.46,0.46 -0.57,0.46 -0.48,0 -0.53,-0.21 -0.67,-0.6 -0.8,-2.78 -2.33,-4.22 -3.69,-4.22 -0.7,0 -0.87,0.46 -0.87,1.22 0,0.8 0.25,1.47 0.56,2.24 0.34,0.93 0.74,1.87 1.11,2.78 0.31,0.84 1.58,4.01 1.72,4.44 0.09,0.34 0.2,0.76 0.2,1.1 0,1.65 -1.39,2.96 -3.31,2.96 -3.45,0 -5.05,-4.74 -5.05,-5.33 0,-0.45 0.49,-0.45 0.6,-0.45 0.48,0 0.51,0.17 0.62,0.56 0.91,3 2.44,4.25 3.72,4.25 0.56,0 0.88,-0.28 0.88,-1.22 0,-0.8 -0.21,-1.33 -1.08,-3.48 z"
             id="path1362" /></g>      </g>
    </g>
    <g
       id="g1654"
       transform="translate(-0.84501059)"
       inkscape:export-xdpi="96"
       inkscape:export-ydpi="96">
      <g
         transform="translate(-0.18614186)"
         id="g1498">
        <rect
           style="fill:#e1e164;fill-opacity:1;stroke-width:0.66145831;stroke-linecap:round;stroke-linejoin:round"
           id="rect1488"
           width="11.90625"
           height="11.90625"
           x="44.539547"
           y="57.508408"
           ry="1.1339285" />
        <rect
           ry="0.80994898"
           y="59.209301"
           x="46.240437"
           height="8.5044641"
           width="8.5044641"
           id="rect1490"
           style="fill:#ffffff;fill-opacity:1;stroke-width:0.66145831;stroke-linecap:round;stroke-linejoin:round" />
      </g>
      <path
         inkscape:connector-curvature="0"
         id="circle1576"
         d="m 47.841619,60.510293 -0.07751,0.114723 c -0.24492,0.362633 -0.393401,0.653352 -0.453718,0.914673 -0.06159,0.266861 -0.01512,0.529399 0.157612,0.702799 0.16605,0.16669 0.390308,0.222848 0.6165,0.245462 0.227566,0.02275 0.478632,0.0091 0.73949,-0.01654 0.522337,-0.05136 1.096901,-0.155363 1.538409,-0.186033 0.219786,-0.01527 0.409879,-0.0086 0.518829,0.01654 0.058,0.01339 0.08871,0.02708 0.09974,0.03462 0.01102,0.0075 0.0072,0.0031 0.01033,0.0124 0.06458,0.193742 0.02863,0.519031 -0.03876,0.877983 -0.03304,0.176006 -0.0731,0.361675 -0.09715,0.551905 L 50.049236,63.06621 a 0.34589778,0.34589778 0 0 0 -0.252698,-0.09044 0.34589778,0.34589778 0 0 0 -0.204637,0.608748 l 1.233517,1.092957 a 0.34653489,0.34653489 0 0 0 0.527097,-0.08165 0.34590225,0.34590225 0 0 0 0.04754,-0.03876 l 1.208712,-1.209744 A 0.34589778,0.34589778 0 0 0 52.357619,62.75304 0.34589778,0.34589778 0 0 0 52.120942,62.857429 L 51.467236,63.5101 c 0.01105,-0.06164 0.01869,-0.117953 0.03049,-0.180866 0.06914,-0.368369 0.146558,-0.768514 0.01809,-1.153935 -0.07948,-0.238438 -0.300696,-0.363972 -0.51263,-0.412896 -0.206346,-0.04763 -0.433692,-0.04709 -0.680061,-0.02997 -0.49363,0.03429 -1.06761,0.143902 -1.553911,0.19172 -0.242562,0.02385 -0.46264,0.03043 -0.627351,0.01395 -0.163049,-0.0163 -0.264996,-0.06856 -0.281636,-0.08527 -0.01614,-0.0162 -0.01853,-0.02117 -0.02274,-0.04341 -0.0042,-0.02224 -0.0054,-0.06707 0.0124,-0.144695 0.03412,-0.147799 0.147521,-0.397447 0.371554,-0.729155 l 0.07752,-0.11472 z m 5.223454,2.883029 c -0.03783,0.09191 -0.09246,0.178729 -0.168465,0.25218 l -1.205095,1.207161 h -0.0021 c -0.01238,0.01212 -0.02669,0.0218 -0.03979,0.03307 -0.263679,0.332079 -0.773534,0.390226 -1.099675,0.101804 l -1.213879,-1.07642 a 2.0257702,2.0257702 0 0 0 -0.05891,0.47594 2.0257702,2.0257702 0 0 0 2.025716,2.025716 2.0257702,2.0257702 0 0 0 2.025716,-2.025716 2.0257702,2.0257702 0 0 0 -0.263549,-0.993738 z"
         style="fill:#e1e164;fill-opacity:1;stroke:none;stroke-width:0.66145825;stroke-linecap:round;stroke-linejoin:round;stroke-miterlimit:4;stroke-dasharray:none;stroke-opacity:1" />
    </g>
    <g
       id="g1635"
       transform="translate(-1.0311507)"
       inkscape:export-xdpi="96"
       inkscape:export-ydpi="96">
      <g
         id="g956"
         transform="translate(30.743415)">
        <rect
           ry="1.1339285"
           y="44.412201"
           x="13.79613"
           height="11.90625"
           width="11.90625"
           id="rect952"
           style="fill:#000000;fill-opacity:1;stroke-width:0.66145831;stroke-linecap:round;stroke-linejoin:round" />
        <rect
           style="fill:#ffffff;fill-opacity:1;stroke-width:0.66145831;stroke-linecap:round;stroke-linejoin:round"
           id="rect954"
           width="8.5044641"
           height="8.5044641"
           x="15.497023"
           y="46.113094"
           ry="0.80994898" />
      </g>
      <path
         style="fill:#000000;fill-opacity:1;stroke:none;stroke-width:0.66145825;stroke-linecap:round;stroke-linejoin:round;stroke-miterlimit:4;stroke-dasharray:none;stroke-opacity:1"
         d="m 48.027759,47.414086 -0.07751,0.114723 c -0.24492,0.362633 -0.393401,0.653352 -0.453718,0.914673 -0.06159,0.266861 -0.01512,0.529399 0.157612,0.702799 0.16605,0.16669 0.390308,0.222848 0.6165,0.245462 0.227566,0.02275 0.478632,0.0091 0.73949,-0.01654 0.522337,-0.05136 1.096901,-0.155363 1.538409,-0.186033 0.219786,-0.01527 0.409879,-0.0086 0.518829,0.01654 0.058,0.01339 0.08871,0.02708 0.09974,0.03462 0.01102,0.0075 0.0072,0.0031 0.01033,0.0124 0.06458,0.193742 0.02863,0.519031 -0.03876,0.877983 -0.03304,0.176006 -0.0731,0.361675 -0.09715,0.551905 l -0.806155,-0.712615 a 0.34589778,0.34589778 0 0 0 -0.252698,-0.09044 0.34589778,0.34589778 0 0 0 -0.204637,0.608748 l 1.233517,1.092957 a 0.34653489,0.34653489 0 0 0 0.527097,-0.08165 0.34590225,0.34590225 0 0 0 0.04754,-0.03876 l 1.208712,-1.209744 a 0.34589778,0.34589778 0 0 0 -0.251148,-0.594281 0.34589778,0.34589778 0 0 0 -0.236677,0.104389 l -0.653706,0.652671 c 0.01105,-0.06164 0.01869,-0.117953 0.03049,-0.180866 0.06914,-0.368369 0.146558,-0.768514 0.01809,-1.153935 -0.07948,-0.238438 -0.300696,-0.363972 -0.51263,-0.412896 -0.206346,-0.04763 -0.433692,-0.04709 -0.680061,-0.02997 -0.49363,0.03429 -1.06761,0.143902 -1.553911,0.19172 -0.242562,0.02385 -0.46264,0.03043 -0.627351,0.01395 -0.163049,-0.0163 -0.264996,-0.06856 -0.281636,-0.08527 -0.01614,-0.0162 -0.01853,-0.02117 -0.02274,-0.04341 -0.0042,-0.02224 -0.0054,-0.06707 0.0124,-0.144695 0.03412,-0.147799 0.147521,-0.397447 0.371554,-0.729155 l 0.07752,-0.11472 z m 5.223454,2.883029 c -0.03783,0.09191 -0.09246,0.178729 -0.168465,0.25218 l -1.205095,1.207161 h -0.0021 c -0.01238,0.01212 -0.02669,0.0218 -0.03979,0.03307 -0.263679,0.332079 -0.773534,0.390226 -1.099675,0.101804 l -1.213879,-1.07642 a 2.0257702,2.0257702 0 0 0 -0.05891,0.47594 2.0257702,2.0257702 0 0 0 2.025716,2.025716 2.0257702,2.0257702 0 0 0 2.025716,-2.025716 2.0257702,2.0257702 0 0 0 -0.263549,-0.993738 z"
         id="path1603"
         inkscape:connector-curvature="0" />
    </g>
    <g
       id="g1642"
       transform="translate(0.13874283)"
       inkscape:export-xdpi="96"
       inkscape:export-ydpi="96">
      <g
         transform="translate(43.572352)"
         id="g1504">
        <rect
           style="fill:#000000;fill-opacity:1;stroke-width:0.66145831;stroke-linecap:round;stroke-linejoin:round"
           id="rect1500"
           width="11.90625"
           height="11.90625"
           x="13.79613"
           y="44.412201"
           ry="1.1339285" />
        <rect
           ry="0.80994898"
           y="46.113094"
           x="15.497023"
           height="8.5044641"
           width="8.5044641"
           id="rect1502"
           style="fill:#ffffff;fill-opacity:1;stroke-width:0.66145831;stroke-linecap:round;stroke-linejoin:round" />
      </g>
      <path
         inkscape:connector-curvature="0"
         id="path1605"
         d="m 64.0024,46.866398 a 0.26460979,0.26460979 0 0 0 -0.02842,5.19e-4 0.26460979,0.26460979 0 0 0 -0.0801,0.507978 l 1.083654,0.468188 c -0.05065,0.0064 -0.101163,0.01239 -0.158128,0.01809 -0.152292,0.01522 -0.31827,0.02875 -0.488344,0.08371 -0.170074,0.05498 -0.348449,0.163779 -0.468704,0.344167 -0.118901,0.178345 -0.138576,0.372282 -0.146243,0.56017 -0.0077,0.187889 0.0044,0.376569 0.0036,0.547254 -7.91e-4,0.170685 -0.01574,0.321453 -0.04858,0.411861 -0.03283,0.09041 -0.0558,0.11851 -0.14056,0.146762 -0.130112,0.04336 -0.264112,0.01905 -0.427879,-0.05116 -0.163769,-0.07021 -0.335216,-0.184981 -0.510048,-0.276984 -0.08742,-0.046 -0.176143,-0.08865 -0.288872,-0.107487 -0.112726,-0.01884 -0.270608,0.0055 -0.378788,0.101285 -0.216358,0.191524 -0.228409,0.451855 -0.228409,0.869196 0,0.461081 0.01647,0.907296 0.06821,1.365292 l 0.525548,-0.05839 c -0.04886,-0.432514 -0.0646,-0.858636 -0.0646,-1.306898 0,-0.337035 0.05996,-0.429374 0.04496,-0.427879 0.02374,0.0088 0.03663,0.0129 0.07596,0.03359 0.132564,0.06976 0.320902,0.197731 0.546737,0.294555 0.225836,0.09682 0.51108,0.16464 0.80512,0.06666 0.235902,-0.07863 0.397576,-0.27286 0.468704,-0.468704 0.07113,-0.195845 0.08076,-0.395449 0.08165,-0.588079 8.89e-4,-0.192627 -0.0098,-0.378984 -0.0036,-0.529167 0.0061,-0.15018 0.0354,-0.256704 0.05684,-0.288869 0.04613,-0.06919 0.09894,-0.102317 0.19327,-0.13281 0.09432,-0.03049 0.225354,-0.04585 0.376722,-0.06098 0.138573,-0.01385 0.300583,-0.03103 0.462502,-0.07493 l -0.25528,1.043863 a 0.26460979,0.26460979 0 1 0 0.513662,0.127125 l 0.366903,-1.503784 a 0.26460979,0.26460979 0 0 0 0.0072,-0.09095 0.26466453,0.26466453 0 0 0 -0.159165,-0.264583 l -1.703255,-0.734322 a 0.26460979,0.26460979 0 0 0 -0.102317,-0.02429 z m -2.564702,3.322278 a 2.0713389,2.0713389 0 0 0 -0.762746,1.604555 2.0713389,2.0713389 0 0 0 2.071193,2.07119 2.0713389,2.0713389 0 0 0 2.07119,-2.07119 2.0713389,2.0713389 0 0 0 -0.568958,-1.424205 c -0.113792,0.146315 -0.265742,0.272211 -0.466119,0.338998 -0.377467,0.125782 -0.734353,0.03657 -0.993222,-0.07442 -0.133924,-0.05742 -0.198297,-0.102258 -0.297656,-0.159678 -4.5e-5,0.0081 -10e-4,0.0075 -10e-4,0.01602 0,0.442071 0.01566,0.857893 0.06305,1.277442 l 0.02946,0.263033 -1.051097,0.11679 -0.02998,-0.262517 c -0.05319,-0.470821 -0.06976,-0.927362 -0.06976,-1.394748 0,-0.106609 6.43e-4,-0.205801 0.0057,-0.301273 z"
         style="fill:#000000;fill-opacity:1;stroke:none;stroke-width:0.79374999;stroke-linecap:round;stroke-linejoin:round;stroke-miterlimit:4;stroke-dasharray:none;stroke-opacity:1" />
      <path
         inkscape:connector-curvature="0"
         id="path1609"
         d="M 65.564556,47.596147 V 49.61737"
         style="fill:#ff0000;fill-opacity:1;stroke:none;stroke-width:0;stroke-linecap:round;stroke-linejoin:round;stroke-miterlimit:4;stroke-dasharray:none;stroke-opacity:1" />
    </g>
    <g
       id="g1648"
       transform="translate(0.32488304)"
       inkscape:export-xdpi="96"
       inkscape:export-ydpi="96">
      <g
         id="g1510"
         transform="translate(12.642795)">
        <rect
           ry="1.1339285"
           y="57.508408"
           x="44.539547"
           height="11.90625"
           width="11.90625"
           id="rect1506"
           style="fill:#e1e164;fill-opacity:1;stroke-width:0.66145831;stroke-linecap:round;stroke-linejoin:round" />
        <rect
           style="fill:#ffffff;fill-opacity:1;stroke-width:0.66145831;stroke-linecap:round;stroke-linejoin:round"
           id="rect1508"
           width="8.5044641"
           height="8.5044641"
           x="46.240437"
           y="59.209301"
           ry="0.80994898" />
      </g>
      <path
         style="fill:#e1e164;fill-opacity:1;stroke:none;stroke-width:0.79374999;stroke-linecap:round;stroke-linejoin:round;stroke-miterlimit:4;stroke-dasharray:none;stroke-opacity:1"
         d="m 63.81626,59.962604 a 0.26460979,0.26460979 0 0 0 -0.02842,5.19e-4 0.26460979,0.26460979 0 0 0 -0.0801,0.507978 l 1.083654,0.468188 c -0.05065,0.0064 -0.101163,0.01239 -0.158128,0.01809 -0.152292,0.01522 -0.31827,0.02875 -0.488344,0.08371 -0.170074,0.05498 -0.348449,0.163779 -0.468704,0.344167 -0.118901,0.178345 -0.138576,0.372282 -0.146243,0.56017 -0.0077,0.187889 0.0044,0.376569 0.0036,0.547254 -7.91e-4,0.170685 -0.01574,0.321453 -0.04858,0.411861 -0.03283,0.09041 -0.0558,0.11851 -0.14056,0.146762 -0.130112,0.04336 -0.264112,0.01905 -0.427879,-0.05116 -0.163769,-0.07021 -0.335216,-0.184981 -0.510048,-0.276984 -0.08742,-0.046 -0.176143,-0.08865 -0.288872,-0.107487 -0.112726,-0.01884 -0.270608,0.0055 -0.378788,0.101285 -0.216358,0.191524 -0.228409,0.451855 -0.228409,0.869196 0,0.461081 0.01647,0.907296 0.06821,1.365292 l 0.525548,-0.05839 c -0.04886,-0.432514 -0.0646,-0.858636 -0.0646,-1.306898 0,-0.337035 0.05996,-0.429374 0.04496,-0.427879 0.02374,0.0088 0.03663,0.0129 0.07596,0.03359 0.132564,0.06976 0.320902,0.197731 0.546737,0.294555 0.225836,0.09682 0.51108,0.16464 0.80512,0.06666 0.235902,-0.07863 0.397576,-0.27286 0.468704,-0.468704 0.07113,-0.195845 0.08076,-0.395449 0.08165,-0.588079 8.89e-4,-0.192627 -0.0098,-0.378984 -0.0036,-0.529167 0.0061,-0.15018 0.0354,-0.256704 0.05684,-0.288869 0.04613,-0.06919 0.09894,-0.102317 0.19327,-0.13281 0.09432,-0.03049 0.225354,-0.04585 0.376722,-0.06098 0.138573,-0.01385 0.300583,-0.03103 0.462502,-0.07493 l -0.25528,1.043863 a 0.26460979,0.26460979 0 1 0 0.513662,0.127125 l 0.366903,-1.503784 a 0.26460979,0.26460979 0 0 0 0.0072,-0.09095 0.26466453,0.26466453 0 0 0 -0.159165,-0.264583 l -1.703255,-0.734322 a 0.26460979,0.26460979 0 0 0 -0.102317,-0.02429 z m -2.564702,3.322278 a 2.0713389,2.0713389 0 0 0 -0.762746,1.604555 2.0713389,2.0713389 0 0 0 2.071193,2.07119 2.0713389,2.0713389 0 0 0 2.07119,-2.07119 2.0713389,2.0713389 0 0 0 -0.568958,-1.424205 c -0.113792,0.146315 -0.265742,0.272211 -0.466119,0.338998 -0.377467,0.125782 -0.734353,0.03657 -0.993222,-0.07442 -0.133924,-0.05742 -0.198297,-0.102258 -0.297656,-0.159678 -4.5e-5,0.0081 -10e-4,0.0075 -10e-4,0.01602 0,0.442071 0.01566,0.857893 0.06305,1.277442 l 0.02946,0.263033 -1.051097,0.11679 -0.02998,-0.262517 c -0.05319,-0.470821 -0.06976,-0.927362 -0.06976,-1.394748 0,-0.106609 6.43e-4,-0.205801 0.0057,-0.301273 z"
         id="path1629"
         inkscape:connector-curvature="0" />
    </g>
    <g
       id="g1683"
       inkscape:export-xdpi="96"
       inkscape:export-ydpi="96">
      <rect
         style="fill:#e1e164;fill-opacity:1;stroke-width:0.66145831;stroke-linecap:round;stroke-linejoin:round"
         id="rect1123"
         width="11.90625"
         height="11.90625"
         x="71.506058"
         y="57.508408"
         ry="1.1339285" />
      <rect
         ry="0.80994898"
         y="59.209301"
         x="73.206955"
         height="8.5044641"
         width="8.5044641"
         id="rect1125"
         style="fill:#ffffff;fill-opacity:1;stroke-width:0.66145831;stroke-linecap:round;stroke-linejoin:round" />
      <g
         id="g1675"
         transform="matrix(0.39821409,0,0,0.39821409,29.608998,-19.461614)"
         style="stroke:#e1e164;stroke-width:0.99663728;stroke-linejoin:round;stroke-miterlimit:4;stroke-dasharray:none;fill:#e1e164;fill-opacity:1;stroke-opacity:1">
        <g
           word-spacing="normal"
           letter-spacing="normal"
           font-size-adjust="none"
           font-stretch="normal"
           font-weight="normal"
           font-variant="normal"
           font-style="normal"
           stroke-miterlimit="10.433"
           xml:space="preserve"
           transform="matrix(0.40821429,0,0,-0.40821429,-71.4375,381)"
           id="g1673"
           style="font-style:normal;font-variant:normal;font-weight:normal;font-stretch:normal;letter-spacing:normal;word-spacing:normal;text-anchor:start;fill:#e1e164;fill-opacity:1;fill-rule:evenodd;stroke:#e1e164;stroke-width:2.44145608;stroke-linecap:butt;stroke-linejoin:round;stroke-miterlimit:4;stroke-dasharray:none;stroke-dashoffset:0;stroke-opacity:1"><polygon
             id="polygon1669"
             points="471.21,440.78 464.54,434 465.43,433.11 471.21,438.18 476.95,433.11 477.84,434 "
             style="fill:#e1e164;stroke:#e1e164;stroke-width:2.44145608;stroke-linejoin:round;stroke-miterlimit:4;stroke-dasharray:none;fill-opacity:1;stroke-opacity:1" /><path
             id="path1671"
             d="m 472.16,421.25 0.03,0.13 0.03,0.15 0.04,0.16 0.05,0.18 0.05,0.19 0.06,0.21 0.07,0.22 0.07,0.22 0.08,0.23 0.09,0.24 0.09,0.25 0.11,0.24 0.11,0.25 0.12,0.25 0.13,0.25 0.13,0.25 0.15,0.24 0.16,0.24 0.16,0.23 0.18,0.22 0.19,0.22 0.2,0.2 0.21,0.19 0.22,0.18 0.23,0.16 0.24,0.14 0.13,0.07 0.13,0.06 0.13,0.05 0.14,0.05 0.14,0.05 0.14,0.04 0.15,0.03 0.15,0.03 0.15,0.02 0.15,0.02 0.16,0.01 h 0.16 c 0.25,0 1.44,0 2.49,-0.64 -1.39,-0.25 -2.39,-1.5 -2.39,-2.69 0,-0.79 0.54,-1.75 1.89,-1.75 1.09,0 2.69,0.89 2.69,2.89 0,2.6 -2.94,3.28 -4.63,3.28 -2.89,0 -4.64,-2.64 -5.23,-3.78 -1.25,3.28 -3.94,3.78 -5.38,3.78 -5.19,0 -8.03,-6.42 -8.03,-7.67 0,-0.5 0.5,-0.5 0.61,-0.5 0.39,0 0.55,0.11 0.64,0.55 1.69,5.28 4.98,6.53 6.67,6.53 0.96,0 2.69,-0.44 2.69,-3.33 0,-1.54 -0.84,-4.89 -2.69,-11.86 -0.8,-3.09 -2.53,-5.18 -4.73,-5.18 -0.3,0 -1.44,0 -2.49,0.65 1.25,0.24 2.35,1.28 2.35,2.69 0,1.34 -1.1,1.73 -1.85,1.73 -1.5,0 -2.75,-1.29 -2.75,-2.89 0,-2.28 2.5,-3.28 4.69,-3.28 3.3,0 5.08,3.49 5.24,3.78 0.59,-1.84 2.39,-3.78 5.37,-3.78 5.14,0 7.98,6.42 7.98,7.67 0,0.5 -0.45,0.5 -0.61,0.5 -0.43,0 -0.54,-0.2 -0.64,-0.54 -1.64,-5.33 -5.03,-6.53 -6.62,-6.53 -1.95,0 -2.75,1.59 -2.75,3.29 0,1.1 0.3,2.19 0.86,4.38 z"
             inkscape:connector-curvature="0"
             style="fill:#e1e164;stroke:#e1e164;stroke-width:2.44145608;stroke-linejoin:round;stroke-miterlimit:4;stroke-dasharray:none;fill-opacity:1;stroke-opacity:1" /></g>      </g>
    </g>
    <g
       id="g1721"
       inkscape:export-xdpi="96"
       inkscape:export-ydpi="96">
      <rect
         ry="1.1339285"
         y="57.508408"
         x="85.50489"
         height="11.90625"
         width="11.90625"
         id="rect1129"
         style="fill:#e1e164;fill-opacity:1;stroke-width:0.66145831;stroke-linecap:round;stroke-linejoin:round" />
      <rect
         style="fill:#ffffff;fill-opacity:1;stroke-width:0.66145831;stroke-linecap:round;stroke-linejoin:round"
         id="rect1131"
         width="8.5044641"
         height="8.5044641"
         x="87.20578"
         y="59.209301"
         ry="0.80994898" />
      <g
         id="g1713"
         transform="matrix(0.37006556,0,0,0.37006557,47.358814,-14.288994)"
         style="stroke:#e1e164;stroke-width:1.07244515;stroke-linejoin:round;stroke-miterlimit:4;stroke-dasharray:none;fill:#e1e164;fill-opacity:1;stroke-opacity:1">
        <g
           word-spacing="normal"
           letter-spacing="normal"
           font-size-adjust="none"
           font-stretch="normal"
           font-weight="normal"
           font-variant="normal"
           font-style="normal"
           stroke-miterlimit="10.433"
           xml:space="preserve"
           transform="matrix(0.40821429,0,0,-0.40821429,-71.4375,381)"
           id="g1711"
           style="font-style:normal;font-variant:normal;font-weight:normal;font-stretch:normal;letter-spacing:normal;word-spacing:normal;text-anchor:start;fill:#e1e164;fill-opacity:1;fill-rule:evenodd;stroke:#e1e164;stroke-width:2.62716198;stroke-linecap:butt;stroke-linejoin:round;stroke-miterlimit:4;stroke-dasharray:none;stroke-dashoffset:0;stroke-opacity:1"><polygon
             id="polygon1707"
             points="472.29,440.78 465.62,434 466.51,433.11 472.29,438.18 478.03,433.11 478.92,434 "
             style="fill:#e1e164;stroke:#e1e164;stroke-width:2.62716198;stroke-linejoin:round;stroke-miterlimit:4;stroke-dasharray:none;fill-opacity:1;stroke-opacity:1" /><path
             id="path1709"
             d="m 457.75,400.12 -0.04,-0.15 -0.03,-0.15 -0.03,-0.14 -0.04,-0.13 -0.03,-0.13 -0.03,-0.11 -0.04,-0.12 -0.03,-0.1 -0.04,-0.1 -0.04,-0.09 -0.05,-0.09 -0.04,-0.08 -0.05,-0.07 -0.05,-0.07 -0.06,-0.07 -0.06,-0.06 -0.07,-0.05 -0.08,-0.05 -0.08,-0.04 -0.08,-0.04 -0.1,-0.04 -0.1,-0.03 -0.11,-0.03 -0.11,-0.02 -0.13,-0.02 -0.07,-0.01 -0.06,-0.01 -0.08,-0.01 -0.07,-0.01 h -0.08 l -0.08,-0.01 h -0.08 l -0.08,-0.01 h -0.09 -0.09 -0.09 -0.1 l -0.1,-0.01 h -0.1 c -0.59,0 -1.14,0 -1.14,-0.93 0,-0.41 0.25,-0.61 0.64,-0.61 1.36,0 2.8,0.15 4.19,0.15 1.64,0 3.34,-0.15 4.94,-0.15 0.25,0 0.89,0 0.89,1 0,0.54 -0.5,0.54 -1.19,0.54 -2.5,0 -2.5,0.36 -2.5,0.8 0,0.61 2.09,8.72 2.45,9.97 0.64,-1.44 2.04,-3.19 4.58,-3.19 l -0.04,1.1 c -3.3,0 -3.94,4.14 -3.94,4.43 0,0.1 0,0.21 0.14,0.8 l 2.45,9.77 c 0.35,1.34 1.69,2.73 2.58,3.48 1.75,1.55 3.2,1.89 4.05,1.89 1.98,0 3.18,-1.73 3.18,-4.69 0,-2.93 -1.64,-8.65 -2.54,-10.56 -1.69,-3.48 -4.08,-5.12 -5.92,-5.12 l 0.04,-1.1 c 5.78,0 12,7.27 12,14.6 0,4.68 -2.83,7.96 -6.62,7.96 -2.49,0 -4.88,-1.78 -6.52,-3.73 -0.5,2.69 -2.64,3.73 -4.48,3.73 -2.3,0 -3.25,-1.93 -3.69,-2.82 -0.91,-1.71 -1.55,-4.69 -1.55,-4.85 0,-0.5 0.5,-0.5 0.6,-0.5 0.5,0 0.54,0.07 0.84,1.16 0.86,3.53 1.84,5.92 3.64,5.92 0.84,0 1.55,-0.39 1.55,-2.28 0,-1.16 -0.16,-1.7 -0.35,-2.55 z"
             inkscape:connector-curvature="0"
             style="fill:#e1e164;stroke:#e1e164;stroke-width:2.62716198;stroke-linejoin:round;stroke-miterlimit:4;stroke-dasharray:none;fill-opacity:1;stroke-opacity:1" /></g>      </g>
    </g>
    <g
       id="g1759"
       inkscape:export-xdpi="96"
       inkscape:export-ydpi="96">
      <rect
         style="fill:#e1e164;fill-opacity:1;stroke-width:0.66145831;stroke-linecap:round;stroke-linejoin:round"
         id="rect1253"
         width="11.90625"
         height="11.90625"
         x="99.503723"
         y="57.508408"
         ry="1.1339285" />
      <rect
         ry="0.80994898"
         y="59.209301"
         x="101.20461"
         height="8.5044641"
         width="8.5044641"
         id="rect1255"
         style="fill:#ffffff;fill-opacity:1;stroke-width:0.66145831;stroke-linecap:round;stroke-linejoin:round" />
      <g
         id="g1751"
         transform="matrix(0.3924506,0,0,0.3924506,57.273905,-19.919204)"
         style="stroke:#e1e164;stroke-width:1.01127374;stroke-linejoin:round;stroke-miterlimit:4;stroke-dasharray:none;fill:#e1e164;fill-opacity:1;stroke-opacity:1">
        <g
           word-spacing="normal"
           letter-spacing="normal"
           font-size-adjust="none"
           font-stretch="normal"
           font-weight="normal"
           font-variant="normal"
           font-style="normal"
           stroke-miterlimit="10.433"
           xml:space="preserve"
           transform="matrix(0.40821429,0,0,-0.40821429,-71.4375,381)"
           id="g1749"
           style="font-style:normal;font-variant:normal;font-weight:normal;font-stretch:normal;letter-spacing:normal;word-spacing:normal;text-anchor:start;fill:#e1e164;fill-opacity:1;fill-rule:evenodd;stroke:#e1e164;stroke-width:2.47731113;stroke-linecap:butt;stroke-linejoin:round;stroke-miterlimit:4;stroke-dasharray:none;stroke-dashoffset:0;stroke-opacity:1"><path
             id="path1745"
             d="m 470.36,417.46 0.15,0.01 h 0.16 0.15 0.07 l 0.08,0.01 h 0.07 l 0.07,0.01 0.07,0.01 0.07,0.01 0.07,0.01 0.07,0.02 0.06,0.01 0.06,0.02 0.06,0.02 0.06,0.03 0.06,0.02 0.05,0.03 0.05,0.03 0.04,0.04 0.04,0.04 0.04,0.04 0.04,0.05 0.01,0.02 0.02,0.03 0.01,0.02 0.01,0.03 0.02,0.03 0.01,0.03 v 0.03 l 0.01,0.03 0.01,0.04 0.01,0.03 v 0.04 0.03 l 0.01,0.04 v 0.04 c 0,0.69 -0.61,0.69 -1.46,0.69 h -8.06 c 1.19,4.23 3.99,7.12 8.52,7.12 h 1.54 c 0.85,0 1.64,0 1.64,0.86 0,0.69 -0.65,0.69 -1.5,0.69 h -1.73 c -6.48,0 -13.16,-4.99 -13.16,-12.6 0,-5.48 3.74,-9.42 9.02,-9.42 3.23,0 6.48,1.99 6.48,2.55 0,0.14 -0.06,0.69 -0.5,0.69 -0.11,0 -0.2,0 -0.65,-0.3 -1.55,-1 -3.39,-1.84 -5.24,-1.84 -2.89,0 -5.37,2.09 -5.37,6.48 0,1.73 0.4,3.63 0.54,4.23 z"
             inkscape:connector-curvature="0"
             style="fill:#e1e164;stroke:#e1e164;stroke-width:2.47731113;stroke-linejoin:round;stroke-miterlimit:4;stroke-dasharray:none;fill-opacity:1;stroke-opacity:1" /><path
             id="path1747"
             d="m 493.66,409.87 v 0.71 l -0.02,0.68 -0.03,0.66 -0.04,0.64 -0.06,0.62 -0.07,0.6 -0.09,0.57 -0.11,0.56 -0.13,0.55 -0.15,0.53 -0.17,0.51 -0.19,0.5 -0.21,0.49 -0.24,0.48 -0.26,0.47 -0.14,0.23 -0.15,0.23 c -1.08,1.61 -3.23,3 -6.03,3 v -0.98 c 1.89,0 3.7,-1.14 4.33,-3.17 0.56,-1.88 0.59,-4.39 0.59,-7.43 0,-2.57 0,-5.15 -0.45,-7.34 -0.7,-3.17 -3.06,-3.94 -4.47,-3.94 v 0 c -1.59,0 -3.72,0.94 -4.42,3.8 -0.49,2.05 -0.49,4.91 -0.49,7.48 0,2.55 0,5.21 0.52,7.11 0.73,2.75 2.97,3.49 4.39,3.49 v 0.98 c -8.08,0 -8.08,-9.51 -8.08,-12.03 0,-2.5 0,-11.81 8.08,-11.81 8.09,0 8.09,9.31 8.09,11.81 z"
             inkscape:connector-curvature="0"
             style="fill:#e1e164;stroke:#e1e164;stroke-width:2.47731113;stroke-linejoin:round;stroke-miterlimit:4;stroke-dasharray:none;fill-opacity:1;stroke-opacity:1" /></g>      </g>
    </g>
    <g
       id="g1807"
       inkscape:export-xdpi="96"
       inkscape:export-ydpi="96">
      <rect
         ry="1.1339285"
         y="57.508408"
         x="113.50255"
         height="11.90625"
         width="11.90625"
         id="rect1384"
         style="fill:#e1e164;fill-opacity:1;stroke-width:0.66145831;stroke-linecap:round;stroke-linejoin:round" />
      <rect
         style="fill:#ffffff;fill-opacity:1;stroke-width:0.66145831;stroke-linecap:round;stroke-linejoin:round"
         id="rect1386"
         width="8.5044641"
         height="8.5044641"
         x="115.20344"
         y="59.209301"
         ry="0.80994898" />
      <g
         id="g1797"
         transform="matrix(0.15661943,0,0,0.15661942,97.527171,30.391315)"
         style="stroke:#e1e164;stroke-width:2.53400874;stroke-linejoin:round;stroke-miterlimit:4;stroke-dasharray:none;fill:#e1e164;fill-opacity:1;stroke-opacity:1">
        <g
           word-spacing="normal"
           letter-spacing="normal"
           font-size-adjust="none"
           font-stretch="normal"
           font-weight="normal"
           font-variant="normal"
           font-style="normal"
           stroke-miterlimit="10.433"
           xml:space="preserve"
           transform="matrix(0.40821429,0,0,-0.40821429,-71.4375,381)"
           id="g1795"
           style="font-style:normal;font-variant:normal;font-weight:normal;font-stretch:normal;letter-spacing:normal;word-spacing:normal;text-anchor:start;fill:#e1e164;fill-opacity:1;fill-rule:evenodd;stroke:#e1e164;stroke-width:6.20754576;stroke-linecap:butt;stroke-linejoin:round;stroke-miterlimit:4;stroke-dasharray:none;stroke-dashoffset:0;stroke-opacity:1"><path
             id="path1787"
             d="m 518.6,381.21 6.03,15.94 h -1.25 c -1.95,-5.17 -7.23,-8.56 -12.95,-10.06 -1.05,-0.25 -5.94,-1.55 -15.5,-1.55 h -30.05 l 25.36,29.75 c 0.36,0.39 0.45,0.55 0.45,0.8 0,0.09 0,0.25 -0.34,0.75 l -23.22,31.73 h 27.3 c 6.68,0 11.21,-0.7 11.65,-0.8 2.71,-0.4 7.03,-1.25 10.97,-3.73 1.25,-0.8 4.63,-3.05 6.33,-7.08 h 1.25 l -6.03,14 h -58.89 c -1.14,0 -1.21,-0.05 -1.35,-0.34 -0.04,-0.16 -0.04,-1.1 -0.04,-1.66 l 26.34,-36.06 -25.8,-30.25 c -0.5,-0.6 -0.5,-0.85 -0.5,-0.89 0,-0.55 0.44,-0.55 1.35,-0.55 z"
             inkscape:connector-curvature="0"
             style="fill:#e1e164;stroke:#e1e164;stroke-width:6.20754576;stroke-linejoin:round;stroke-miterlimit:4;stroke-dasharray:none;fill-opacity:1;stroke-opacity:1" /><path
             id="path1789"
             d="m 557.57,437.05 v 0.01 0.01 0 0.01 0.01 0.01 0.01 0 l 0.01,0.02 v 0.03 l 0.01,0.02 v 0.02 l 0.01,0.03 v 0.03 l 0.01,0.02 0.01,0.03 v 0.03 l 0.01,0.03 0.01,0.06 0.02,0.06 0.01,0.03 v 0.02 l 0.01,0.03 0.01,0.03 v 0.02 l 0.01,0.02 v 0.03 l 0.01,0.02 v 0 0.01 0.01 l 0.01,0.01 v 0.01 0 0.01 0 0.01 0 0.01 0 c 0,0.04 0,0.5 -0.59,0.5 -0.5,0 -0.55,-0.16 -0.75,-1 l -2.89,-11.5 c -7.92,-0.25 -15.25,-6.88 -15.25,-13.66 0,-4.73 3.48,-8.67 9.56,-9.01 l 0.25,1.09 c -2.98,0.14 -6.58,1.89 -6.58,6.87 0,5.99 4.3,12.96 11.72,13.6 l -5.14,-20.47 -0.25,-1.09 c -0.39,-1.55 -0.73,-3.14 -1.14,-4.69 -0.59,-2.35 -1.09,-4.24 -1.09,-4.39 0,-0.49 0.34,-0.55 0.59,-0.55 0.25,0 0.36,0.06 0.5,0.2 0.09,0.1 0.41,1.3 0.55,2 l 1.89,7.43 0.25,1.09 5.14,20.47 c 3.78,-0.19 6.62,-2.49 6.62,-6.88 0,-5.87 -4.28,-13 -11.76,-13.59 l -0.25,-1.09 c 8.03,0.25 15.25,6.96 15.25,13.64 0,3.93 -2.64,8.53 -9.57,9.03 z"
             inkscape:connector-curvature="0"
             style="fill:#e1e164;stroke:#e1e164;stroke-width:6.20754576;stroke-linejoin:round;stroke-miterlimit:4;stroke-dasharray:none;fill-opacity:1;stroke-opacity:1" /><path
             id="path1791"
             d="m 576.74,418.02 v 0.05 l -0.01,0.05 v 0.06 l -0.01,0.05 -0.01,0.06 -0.02,0.06 -0.01,0.05 -0.02,0.06 -0.03,0.05 -0.02,0.06 -0.03,0.06 -0.03,0.05 -0.03,0.05 -0.04,0.06 -0.03,0.05 -0.05,0.05 -0.04,0.05 -0.05,0.04 -0.05,0.05 -0.05,0.04 -0.06,0.04 -0.06,0.04 -0.06,0.04 -0.06,0.03 -0.07,0.03 -0.07,0.02 -0.08,0.02 -0.08,0.02 -0.08,0.02 -0.08,0.01 -0.09,0.01 h -0.09 c -0.93,0 -1.95,-0.91 -1.95,-1.92 0,-0.6 0.45,-1.33 1.4,-1.33 1,0 1.96,0.98 1.96,1.92 z"
             inkscape:connector-curvature="0"
             style="fill:#e1e164;stroke:#e1e164;stroke-width:6.20754576;stroke-linejoin:round;stroke-miterlimit:4;stroke-dasharray:none;fill-opacity:1;stroke-opacity:1" /><path
             id="path1793"
             d="m 569.63,400.32 -0.05,-0.17 -0.06,-0.17 -0.03,-0.09 -0.02,-0.08 -0.03,-0.09 -0.02,-0.09 -0.02,-0.08 -0.02,-0.1 -0.02,-0.09 -0.01,-0.1 -0.02,-0.1 v -0.05 l -0.01,-0.05 v -0.05 -0.05 -0.06 -0.05 c 0,-1.64 1.39,-2.96 3.29,-2.96 3.49,0 5.04,4.8 5.04,5.33 0,0.46 -0.46,0.46 -0.57,0.46 -0.48,0 -0.53,-0.21 -0.67,-0.6 -0.8,-2.78 -2.33,-4.22 -3.69,-4.22 -0.7,0 -0.87,0.46 -0.87,1.22 0,0.8 0.25,1.47 0.56,2.24 0.34,0.93 0.74,1.87 1.11,2.78 0.31,0.84 1.58,4.01 1.72,4.44 0.09,0.34 0.2,0.76 0.2,1.1 0,1.65 -1.39,2.96 -3.31,2.96 -3.45,0 -5.05,-4.74 -5.05,-5.33 0,-0.45 0.49,-0.45 0.6,-0.45 0.48,0 0.51,0.17 0.62,0.56 0.91,3 2.44,4.25 3.72,4.25 0.56,0 0.88,-0.28 0.88,-1.22 0,-0.8 -0.21,-1.33 -1.08,-3.48 z"
             inkscape:connector-curvature="0"
             style="fill:#e1e164;stroke:#e1e164;stroke-width:6.20754576;stroke-linejoin:round;stroke-miterlimit:4;stroke-dasharray:none;fill-opacity:1;stroke-opacity:1" /></g>      </g>
    </g>
    <g
       id="g975"
       inkscape:export-xdpi="96"
       inkscape:export-ydpi="96">
      <rect
         style="fill:#e12864;fill-opacity:1;stroke-width:0.66145831;stroke-linecap:round;stroke-linejoin:round"
         id="rect937"
         width="11.90625"
         height="11.90625"
         x="113.50255"
         y="70.938698"
         ry="1.1339285" />
      <rect
         ry="0.80994898"
         y="72.639595"
         x="115.20344"
         height="8.5044641"
         width="8.5044641"
         id="rect939"
         style="fill:#ffffff;fill-opacity:1;stroke-width:0.66145831;stroke-linecap:round;stroke-linejoin:round" />
      <g
         word-spacing="normal"
         letter-spacing="normal"
         font-size-adjust="none"
         font-stretch="normal"
         font-weight="normal"
         font-variant="normal"
         font-style="normal"
         stroke-miterlimit="10.433"
         xml:space="preserve"
         transform="matrix(0.06393429,0,0,-0.06393429,86.33867,103.49361)"
         id="g949"
         style="font-style:normal;font-variant:normal;font-weight:normal;font-stretch:normal;letter-spacing:normal;word-spacing:normal;text-anchor:start;fill:#e12864;fill-opacity:1;fill-rule:evenodd;stroke:#e12864;stroke-width:6.20754576;stroke-linecap:butt;stroke-linejoin:round;stroke-miterlimit:4;stroke-dasharray:none;stroke-dashoffset:0;stroke-opacity:1"><path
           id="path941"
           d="m 518.6,381.21 6.03,15.94 h -1.25 c -1.95,-5.17 -7.23,-8.56 -12.95,-10.06 -1.05,-0.25 -5.94,-1.55 -15.5,-1.55 h -30.05 l 25.36,29.75 c 0.36,0.39 0.45,0.55 0.45,0.8 0,0.09 0,0.25 -0.34,0.75 l -23.22,31.73 h 27.3 c 6.68,0 11.21,-0.7 11.65,-0.8 2.71,-0.4 7.03,-1.25 10.97,-3.73 1.25,-0.8 4.63,-3.05 6.33,-7.08 h 1.25 l -6.03,14 h -58.89 c -1.14,0 -1.21,-0.05 -1.35,-0.34 -0.04,-0.16 -0.04,-1.1 -0.04,-1.66 l 26.34,-36.06 -25.8,-30.25 c -0.5,-0.6 -0.5,-0.85 -0.5,-0.89 0,-0.55 0.44,-0.55 1.35,-0.55 z"
           inkscape:connector-curvature="0"
           style="fill:#e12864;fill-opacity:1;stroke:#e12864;stroke-width:6.20754576;stroke-linejoin:round;stroke-miterlimit:4;stroke-dasharray:none;stroke-opacity:1" /><path
           id="path943"
           d="m 557.57,437.05 v 0.01 0.01 0 0.01 0.01 0.01 0.01 0 l 0.01,0.02 v 0.03 l 0.01,0.02 v 0.02 l 0.01,0.03 v 0.03 l 0.01,0.02 0.01,0.03 v 0.03 l 0.01,0.03 0.01,0.06 0.02,0.06 0.01,0.03 v 0.02 l 0.01,0.03 0.01,0.03 v 0.02 l 0.01,0.02 v 0.03 l 0.01,0.02 v 0 0.01 0.01 l 0.01,0.01 v 0.01 0 0.01 0 0.01 0 0.01 0 c 0,0.04 0,0.5 -0.59,0.5 -0.5,0 -0.55,-0.16 -0.75,-1 l -2.89,-11.5 c -7.92,-0.25 -15.25,-6.88 -15.25,-13.66 0,-4.73 3.48,-8.67 9.56,-9.01 l 0.25,1.09 c -2.98,0.14 -6.58,1.89 -6.58,6.87 0,5.99 4.3,12.96 11.72,13.6 l -5.14,-20.47 -0.25,-1.09 c -0.39,-1.55 -0.73,-3.14 -1.14,-4.69 -0.59,-2.35 -1.09,-4.24 -1.09,-4.39 0,-0.49 0.34,-0.55 0.59,-0.55 0.25,0 0.36,0.06 0.5,0.2 0.09,0.1 0.41,1.3 0.55,2 l 1.89,7.43 0.25,1.09 5.14,20.47 c 3.78,-0.19 6.62,-2.49 6.62,-6.88 0,-5.87 -4.28,-13 -11.76,-13.59 l -0.25,-1.09 c 8.03,0.25 15.25,6.96 15.25,13.64 0,3.93 -2.64,8.53 -9.57,9.03 z"
           inkscape:connector-curvature="0"
           style="fill:#e12864;fill-opacity:1;stroke:#e12864;stroke-width:6.20754576;stroke-linejoin:round;stroke-miterlimit:4;stroke-dasharray:none;stroke-opacity:1" /><path
           id="path945"
           d="m 576.74,418.02 v 0.05 l -0.01,0.05 v 0.06 l -0.01,0.05 -0.01,0.06 -0.02,0.06 -0.01,0.05 -0.02,0.06 -0.03,0.05 -0.02,0.06 -0.03,0.06 -0.03,0.05 -0.03,0.05 -0.04,0.06 -0.03,0.05 -0.05,0.05 -0.04,0.05 -0.05,0.04 -0.05,0.05 -0.05,0.04 -0.06,0.04 -0.06,0.04 -0.06,0.04 -0.06,0.03 -0.07,0.03 -0.07,0.02 -0.08,0.02 -0.08,0.02 -0.08,0.02 -0.08,0.01 -0.09,0.01 h -0.09 c -0.93,0 -1.95,-0.91 -1.95,-1.92 0,-0.6 0.45,-1.33 1.4,-1.33 1,0 1.96,0.98 1.96,1.92 z"
           inkscape:connector-curvature="0"
           style="fill:#e12864;fill-opacity:1;stroke:#e12864;stroke-width:6.20754576;stroke-linejoin:round;stroke-miterlimit:4;stroke-dasharray:none;stroke-opacity:1" /><path
           id="path947"
           d="m 569.63,400.32 -0.05,-0.17 -0.06,-0.17 -0.03,-0.09 -0.02,-0.08 -0.03,-0.09 -0.02,-0.09 -0.02,-0.08 -0.02,-0.1 -0.02,-0.09 -0.01,-0.1 -0.02,-0.1 v -0.05 l -0.01,-0.05 v -0.05 -0.05 -0.06 -0.05 c 0,-1.64 1.39,-2.96 3.29,-2.96 3.49,0 5.04,4.8 5.04,5.33 0,0.46 -0.46,0.46 -0.57,0.46 -0.48,0 -0.53,-0.21 -0.67,-0.6 -0.8,-2.78 -2.33,-4.22 -3.69,-4.22 -0.7,0 -0.87,0.46 -0.87,1.22 0,0.8 0.25,1.47 0.56,2.24 0.34,0.93 0.74,1.87 1.11,2.78 0.31,0.84 1.58,4.01 1.72,4.44 0.09,0.34 0.2,0.76 0.2,1.1 0,1.65 -1.39,2.96 -3.31,2.96 -3.45,0 -5.05,-4.74 -5.05,-5.33 0,-0.45 0.49,-0.45 0.6,-0.45 0.48,0 0.51,0.17 0.62,0.56 0.91,3 2.44,4.25 3.72,4.25 0.56,0 0.88,-0.28 0.88,-1.22 0,-0.8 -0.21,-1.33 -1.08,-3.48 z"
           inkscape:connector-curvature="0"
           style="fill:#e12864;fill-opacity:1;stroke:#e12864;stroke-width:6.20754576;stroke-linejoin:round;stroke-miterlimit:4;stroke-dasharray:none;stroke-opacity:1" /></g>    </g>
  </g>
</svg>
